<mxfile host="app.diagrams.net" agent="Mozilla/5.0 (Macintosh; Intel Mac OS X 10_15_7) AppleWebKit/605.1.15 (KHTML, like Gecko) Version/17.6 Safari/605.1.15" version="24.7.7">
  <diagram name="Page-1" id="2YBvvXClWsGukQMizWep">
    <mxGraphModel dx="901" dy="598" grid="0" gridSize="10" guides="1" tooltips="1" connect="1" arrows="1" fold="1" page="1" pageScale="1" pageWidth="850" pageHeight="1100" background="none" math="0" shadow="0">
      <root>
        <mxCell id="0" />
        <mxCell id="1" parent="0" />
        <mxCell id="lCpbewTqBiGKCxygHLij-19" value="Actor (Store Staff)" style="shape=umlLifeline;perimeter=lifelinePerimeter;whiteSpace=wrap;html=1;container=0;dropTarget=0;collapsible=0;recursiveResize=0;outlineConnect=0;portConstraint=eastwest;newEdgeStyle={&quot;edgeStyle&quot;:&quot;elbowEdgeStyle&quot;,&quot;elbow&quot;:&quot;vertical&quot;,&quot;curved&quot;:0,&quot;rounded&quot;:0};" vertex="1" parent="1">
          <mxGeometry x="50" y="50" width="110" height="284" as="geometry" />
        </mxCell>
        <mxCell id="lCpbewTqBiGKCxygHLij-20" value="" style="html=1;points=[];perimeter=orthogonalPerimeter;outlineConnect=0;targetShapes=umlLifeline;portConstraint=eastwest;newEdgeStyle={&quot;edgeStyle&quot;:&quot;elbowEdgeStyle&quot;,&quot;elbow&quot;:&quot;vertical&quot;,&quot;curved&quot;:0,&quot;rounded&quot;:0};" vertex="1" parent="lCpbewTqBiGKCxygHLij-19">
          <mxGeometry x="45" y="70" width="25" height="234" as="geometry" />
        </mxCell>
        <mxCell id="lCpbewTqBiGKCxygHLij-21" value="System (eStore)" style="shape=umlLifeline;perimeter=lifelinePerimeter;whiteSpace=wrap;html=1;container=0;dropTarget=0;collapsible=0;recursiveResize=0;outlineConnect=0;portConstraint=eastwest;newEdgeStyle={&quot;edgeStyle&quot;:&quot;elbowEdgeStyle&quot;,&quot;elbow&quot;:&quot;vertical&quot;,&quot;curved&quot;:0,&quot;rounded&quot;:0};" vertex="1" parent="1">
          <mxGeometry x="323" y="50" width="110" height="281" as="geometry" />
        </mxCell>
        <mxCell id="lCpbewTqBiGKCxygHLij-22" value="" style="html=1;points=[];perimeter=orthogonalPerimeter;outlineConnect=0;targetShapes=umlLifeline;portConstraint=eastwest;newEdgeStyle={&quot;edgeStyle&quot;:&quot;elbowEdgeStyle&quot;,&quot;elbow&quot;:&quot;vertical&quot;,&quot;curved&quot;:0,&quot;rounded&quot;:0};" vertex="1" parent="lCpbewTqBiGKCxygHLij-21">
          <mxGeometry x="45" y="70" width="25" height="235" as="geometry" />
        </mxCell>
        <mxCell id="lCpbewTqBiGKCxygHLij-23" value="1. Logs into system" style="html=1;verticalAlign=bottom;endArrow=block;edgeStyle=elbowEdgeStyle;elbow=vertical;curved=0;rounded=0;endFill=1;endSize=8;startSize=8;" edge="1" parent="1" source="lCpbewTqBiGKCxygHLij-20" target="lCpbewTqBiGKCxygHLij-22">
          <mxGeometry x="0.0031" relative="1" as="geometry">
            <mxPoint x="205" y="140" as="sourcePoint" />
            <Array as="points">
              <mxPoint x="190" y="130" />
            </Array>
            <mxPoint x="325" y="130" as="targetPoint" />
            <mxPoint as="offset" />
          </mxGeometry>
        </mxCell>
        <mxCell id="lCpbewTqBiGKCxygHLij-24" value="2. Selects inventory management" style="html=1;verticalAlign=bottom;endArrow=none;edgeStyle=elbowEdgeStyle;elbow=vertical;curved=0;rounded=0;endFill=0;endSize=8;startSize=8;startArrow=block;startFill=1;" edge="1" parent="1" source="lCpbewTqBiGKCxygHLij-22">
          <mxGeometry x="0.0025" relative="1" as="geometry">
            <mxPoint x="325" y="160" as="sourcePoint" />
            <Array as="points">
              <mxPoint x="200" y="160" />
            </Array>
            <mxPoint x="120.00000000000011" y="160" as="targetPoint" />
            <mxPoint as="offset" />
          </mxGeometry>
        </mxCell>
        <mxCell id="lCpbewTqBiGKCxygHLij-25" value="3. View product inventory" style="html=1;verticalAlign=bottom;endArrow=none;endSize=8;edgeStyle=elbowEdgeStyle;elbow=vertical;curved=0;rounded=0;endFill=0;startArrow=block;startFill=1;" edge="1" parent="1" target="lCpbewTqBiGKCxygHLij-22">
          <mxGeometry relative="1" as="geometry">
            <mxPoint x="358" y="190" as="targetPoint" />
            <Array as="points">
              <mxPoint x="190" y="190" />
            </Array>
            <mxPoint x="120.00000000000011" y="190" as="sourcePoint" />
          </mxGeometry>
        </mxCell>
        <mxCell id="lCpbewTqBiGKCxygHLij-28" value="4. Update product stock" style="html=1;verticalAlign=bottom;endArrow=block;endSize=8;edgeStyle=elbowEdgeStyle;elbow=vertical;curved=0;rounded=0;endFill=1;" edge="1" parent="1" target="lCpbewTqBiGKCxygHLij-22">
          <mxGeometry x="0.0011" relative="1" as="geometry">
            <mxPoint x="325" y="220" as="targetPoint" />
            <Array as="points">
              <mxPoint x="270" y="220" />
              <mxPoint x="290" y="230" />
              <mxPoint x="190" y="260" />
            </Array>
            <mxPoint x="120.00000000000011" y="220" as="sourcePoint" />
            <mxPoint as="offset" />
          </mxGeometry>
        </mxCell>
        <mxCell id="lCpbewTqBiGKCxygHLij-29" value="5. Validates new stock quantity" style="html=1;verticalAlign=bottom;endArrow=none;endSize=8;edgeStyle=elbowEdgeStyle;elbow=vertical;curved=0;rounded=0;endFill=0;startArrow=block;startFill=1;" edge="1" parent="1" target="lCpbewTqBiGKCxygHLij-22">
          <mxGeometry x="0.0025" relative="1" as="geometry">
            <mxPoint x="325" y="250" as="targetPoint" />
            <Array as="points">
              <mxPoint x="180" y="250" />
            </Array>
            <mxPoint x="120.00000000000011" y="250" as="sourcePoint" />
            <mxPoint as="offset" />
          </mxGeometry>
        </mxCell>
        <mxCell id="lCpbewTqBiGKCxygHLij-31" value="6. Confirms inventory update" style="html=1;verticalAlign=bottom;endArrow=block;endSize=8;edgeStyle=elbowEdgeStyle;elbow=vertical;curved=0;rounded=0;endFill=1;" edge="1" parent="1" target="lCpbewTqBiGKCxygHLij-22">
          <mxGeometry x="-0.0012" relative="1" as="geometry">
            <mxPoint x="322" y="280" as="targetPoint" />
            <Array as="points">
              <mxPoint x="178" y="280" />
            </Array>
            <mxPoint x="120" y="280" as="sourcePoint" />
            <mxPoint as="offset" />
          </mxGeometry>
        </mxCell>
        <mxCell id="lCpbewTqBiGKCxygHLij-33" value="7. Saves updated inventory to database" style="html=1;verticalAlign=bottom;endArrow=block;endSize=8;edgeStyle=elbowEdgeStyle;elbow=vertical;curved=0;rounded=0;endFill=1;startArrow=none;startFill=0;startSize=8;" edge="1" parent="1" target="lCpbewTqBiGKCxygHLij-22">
          <mxGeometry x="-0.0012" relative="1" as="geometry">
            <mxPoint x="320" y="310" as="targetPoint" />
            <Array as="points">
              <mxPoint x="178" y="310" />
            </Array>
            <mxPoint x="120" y="310" as="sourcePoint" />
            <mxPoint as="offset" />
          </mxGeometry>
        </mxCell>
        <mxCell id="lCpbewTqBiGKCxygHLij-34" value="8. Send update confirmation" style="html=1;verticalAlign=bottom;endArrow=none;endSize=8;edgeStyle=elbowEdgeStyle;elbow=vertical;curved=0;rounded=0;endFill=0;startArrow=block;startFill=1;" edge="1" parent="1" target="lCpbewTqBiGKCxygHLij-22">
          <mxGeometry x="-0.0012" relative="1" as="geometry">
            <mxPoint x="320" y="340" as="targetPoint" />
            <Array as="points">
              <mxPoint x="178" y="340" />
            </Array>
            <mxPoint x="120" y="340" as="sourcePoint" />
            <mxPoint as="offset" />
          </mxGeometry>
        </mxCell>
      </root>
    </mxGraphModel>
  </diagram>
</mxfile>
